<?xml version="1.0" standalone="no"?>
<!DOCTYPE svg PUBLIC "-//W3C//DTD SVG 20010904//EN"
 "http://www.w3.org/TR/2001/REC-SVG-20010904/DTD/svg10.dtd">
<svg version="1.0" xmlns="http://www.w3.org/2000/svg"
 width="256.000000pt" height="256.000000pt" viewBox="0 0 256.000000 256.000000"
 preserveAspectRatio="xMidYMid meet">
<metadata>
Created by potrace 1.15, written by Peter Selinger 2001-2017
</metadata>
<g transform="translate(0.000000,256.000000) scale(0.100000,-0.100000)"
fill="#000000" stroke="none">
<path d="M1135 2544 c-65 -10 -191 -37 -215 -46 -14 -5 -27 -10 -30 -10 -51
-7 -221 -89 -325 -156 -89 -58 -277 -246 -337 -337 -95 -147 -157 -295 -194
-465 -26 -118 -26 -372 0 -490 57 -263 162 -457 351 -646 186 -186 383 -293
647 -351 115 -25 371 -25 486 0 264 58 461 165 647 351 189 189 294 383 351
646 26 118 26 372 0 490 -57 263 -162 457 -351 646 -185 186 -383 293 -645
350 -73 15 -323 27 -385 18z"/>
</g>
</svg>
